<svg width="313" height="99" viewBox="0 0 313 99" fill="none" xmlns="http://www.w3.org/2000/svg">
<g filter="url(#filter0_d_458_996)">
<path d="M101.439 20.3713L92.2012 48.0065H97.1361L99.0068 42.0433H111.57L113.44 48.0065H118.375L109.137 20.3713H101.439ZM105.451 22.6733L110.328 38.1822H100.247L105.125 22.6733H105.451Z" fill="#AA3F6B"/>
<path d="M134.861 37.2415C133.854 36.8103 132.747 36.4782 131.57 36.2558C130.418 36.0385 129.325 35.8096 128.323 35.5757C127.342 35.3463 126.51 35.0503 125.853 34.6957C125.233 34.3626 124.932 33.8653 124.932 33.1756C124.932 32.9682 124.986 32.7433 125.092 32.5074C125.193 32.2831 125.398 32.0802 125.702 31.9059C126.021 31.7216 126.476 31.5643 127.054 31.4386C127.638 31.3119 128.411 31.2478 129.355 31.2478C130.245 31.2478 131.005 31.3184 131.615 31.4576C132.212 31.5949 132.696 31.7947 133.051 32.0522C133.4 32.3051 133.656 32.6091 133.812 32.9557C133.97 33.3083 134.05 33.71 134.05 34.1502V34.3611L138.106 33.6354V33.4876C138.106 32.8661 137.936 32.2099 137.6 31.5378C137.264 30.8676 136.737 30.2446 136.032 29.6856C135.33 29.1297 134.42 28.6674 133.327 28.3113C132.236 27.9562 130.913 27.7764 129.394 27.7764C127.856 27.7764 126.524 27.9091 125.436 28.171C124.34 28.435 123.429 28.8181 122.726 29.3085C122.014 29.8053 121.49 30.4124 121.165 31.1136C120.844 31.8098 120.682 32.5821 120.682 33.409C120.682 34.7718 121.037 35.8792 121.737 36.7001C122.427 37.509 123.293 38.1541 124.312 38.6169C125.319 39.0746 126.427 39.4262 127.605 39.6622C128.765 39.894 129.858 40.13 130.854 40.3623C131.835 40.5917 132.667 40.8817 133.327 41.2243C133.944 41.5454 134.245 41.9971 134.245 42.6067C134.245 42.9147 134.173 43.2082 134.031 43.4802C133.891 43.7481 133.638 43.9935 133.278 44.2094C132.907 44.4323 132.408 44.6086 131.794 44.7333C131.174 44.86 130.379 44.9246 129.433 44.9246C127.639 44.9246 126.327 44.5846 125.532 43.9139C124.736 43.2418 124.348 42.4955 124.348 41.6325V41.4217L120.292 42.1474V42.2951C120.292 43.0229 120.482 43.7581 120.857 44.4809C121.231 45.2026 121.805 45.8647 122.563 46.4492C123.316 47.0307 124.272 47.506 125.405 47.8616C126.533 48.2163 127.875 48.3961 129.394 48.3961C132.484 48.3961 134.794 47.8601 136.259 46.8038C137.743 45.7345 138.496 44.244 138.496 42.3733C138.496 40.9844 138.14 39.8765 137.438 39.0802C136.748 38.2973 135.881 37.6783 134.861 37.2415Z" fill="#AA3F6B"/>
<path d="M155.83 37.2415C154.823 36.8103 153.716 36.4782 152.539 36.2558C151.387 36.0385 150.294 35.8096 149.292 35.5757C148.31 35.3463 147.479 35.0503 146.822 34.6957C146.202 34.3626 145.901 33.8653 145.901 33.1756C145.901 32.9682 145.955 32.7433 146.061 32.5074C146.162 32.2831 146.367 32.0802 146.67 31.9059C146.99 31.7216 147.445 31.5643 148.023 31.4386C148.606 31.3119 149.38 31.2478 150.324 31.2478C151.214 31.2478 151.974 31.3184 152.584 31.4576C153.181 31.5949 153.664 31.7947 154.02 32.0522C154.369 32.3051 154.625 32.6091 154.781 32.9557C154.939 33.3083 155.019 33.71 155.019 34.1502V34.3611L159.075 33.6354V33.4876C159.075 32.8661 158.904 32.2099 158.569 31.5378C158.233 30.8676 157.705 30.2446 157.001 29.6856C156.298 29.1297 155.388 28.6674 154.295 28.3113C153.205 27.9562 151.881 27.7764 150.363 27.7764C148.825 27.7764 147.493 27.9091 146.405 28.171C145.309 28.435 144.398 28.8181 143.694 29.3085C142.983 29.8053 142.458 30.4124 142.134 31.1136C141.813 31.8098 141.65 32.5821 141.65 33.409C141.65 34.7718 142.006 35.8792 142.706 36.7001C143.395 37.509 144.262 38.1541 145.281 38.6169C146.288 39.0746 147.396 39.4262 148.574 39.6622C149.734 39.894 150.827 40.13 151.823 40.3623C152.804 40.5917 153.636 40.8817 154.295 41.2243C154.913 41.5454 155.214 41.9971 155.214 42.6067C155.214 42.9147 155.141 43.2082 155 43.4802C154.86 43.7481 154.607 43.9935 154.247 44.2094C153.876 44.4323 153.377 44.6086 152.763 44.7333C152.142 44.86 151.347 44.9246 150.401 44.9246C148.608 44.9246 147.296 44.5846 146.501 43.9139C145.704 43.2418 145.317 42.4955 145.317 41.6325V41.4217L141.261 42.1474V42.2951C141.261 43.0229 141.451 43.7581 141.826 44.4809C142.2 45.2026 142.774 45.8647 143.532 46.4492C144.285 47.0307 145.241 47.506 146.373 47.8616C147.502 48.2163 148.844 48.3961 150.363 48.3961C153.453 48.3961 155.762 47.8601 157.228 46.8038C158.712 45.7345 159.464 44.244 159.464 42.3733C159.464 40.9844 159.109 39.8765 158.407 39.0802C157.716 38.2973 156.849 37.6783 155.83 37.2415Z" fill="#AA3F6B"/>
<path d="M167.063 21.6184H162.423V25.4014H167.063V21.6184Z" fill="#AA3F6B"/>
<path d="M166.868 28.1665H162.617V48.0069H166.868V28.1665Z" fill="#AA3F6B"/>
<path d="M187.891 30.1755C187.266 29.4577 186.452 28.8722 185.472 28.4345C184.492 27.9977 183.314 27.7764 181.97 27.7764C180.785 27.7764 179.76 27.9447 178.924 28.2762C178.088 28.6083 177.387 29.033 176.842 29.5384C176.298 30.0422 175.867 30.5751 175.561 31.1211C175.285 31.6129 175.077 32.0732 174.942 32.4924H174.664V28.1665H170.413V48.0069H174.664V37.8921C174.664 36.6956 174.805 35.6859 175.083 34.891C175.358 34.1022 175.744 33.4556 176.23 32.9702C176.712 32.4869 177.278 32.1413 177.911 31.942C178.554 31.7406 179.264 31.6385 180.021 31.6385C180.778 31.6385 181.495 31.7406 182.152 31.9425C182.797 32.1413 183.369 32.4874 183.852 32.9702C184.338 33.4561 184.731 34.1032 185.019 34.8935C185.31 35.6894 185.457 36.6986 185.457 37.8926V48.0074H189.708V35.3593C189.708 34.4362 189.56 33.5132 189.27 32.6156C188.978 31.7136 188.514 30.8927 187.891 30.1765V30.1755Z" fill="#AA3F6B"/>
<path d="M211.7 44.1453C211.459 43.8819 211.337 43.3384 211.337 42.5301V35.3588C211.337 34.0471 211.177 32.9006 210.86 31.951C210.54 30.9909 210.025 30.1915 209.329 29.5749C208.635 28.9619 207.719 28.5031 206.606 28.2111C205.505 27.9226 204.152 27.7764 202.586 27.7764C200.281 27.7764 198.331 28.2101 196.791 29.0651C195.236 29.929 194.139 31.4136 193.531 33.4761L193.48 33.6484L197.63 34.7918L197.685 34.6386C197.889 34.0801 198.113 33.5988 198.352 33.2091C198.583 32.8325 198.885 32.5235 199.251 32.2916C199.62 32.0582 200.071 31.8894 200.592 31.7897C201.127 31.6885 201.784 31.637 202.547 31.637C203.31 31.637 203.981 31.7136 204.547 31.8648C205.099 32.0116 205.564 32.272 205.93 32.6377C206.296 33.0043 206.577 33.5041 206.762 34.1222C206.94 34.7157 207.036 35.468 207.046 36.3595C206.2 36.4021 205.326 36.3991 204.447 36.3505C203.495 36.2984 202.541 36.2724 201.611 36.2724C200.677 36.2724 199.739 36.3255 198.824 36.4296C197.902 36.5353 197.006 36.7757 196.162 37.1449C195.306 37.5195 194.607 38.0629 194.085 38.7596C193.565 39.4533 193.207 40.2231 193.021 41.048C192.834 41.8729 192.821 42.7359 192.98 43.6129C193.14 44.4934 193.478 45.2978 193.984 46.003C194.492 46.7112 195.181 47.2932 196.035 47.7329C196.887 48.1727 197.924 48.3956 199.117 48.3956C200.301 48.3956 201.358 48.2213 202.259 47.8772C203.154 47.5351 203.93 47.1134 204.564 46.6245C205.199 46.1352 205.71 45.6033 206.084 45.0433C206.42 44.539 206.662 44.0812 206.805 43.68H207.089C207.131 44.9226 207.622 45.9564 208.55 46.7553C209.514 47.5852 211.048 48.0064 213.109 48.0064H213.285V44.535H213.109C212.41 44.535 211.936 44.4038 211.7 44.1443L211.7 44.1453ZM207.084 39.8324C207.058 40.7455 206.84 41.5003 206.436 42.0778C205.999 42.7023 205.436 43.2017 204.763 43.5628C204.081 43.9294 203.331 44.1854 202.536 44.3241C201.733 44.4644 200.962 44.536 200.248 44.536C199.277 44.536 198.526 44.3441 198.014 43.9665C197.503 43.5894 197.171 43.1486 197.027 42.6563C196.882 42.1644 196.901 41.6776 197.08 41.2103C197.26 40.743 197.569 40.4109 198.021 40.1971C198.518 39.9732 199.108 39.834 199.774 39.7834C200.226 39.7493 200.71 39.7323 201.22 39.7323C201.473 39.7323 201.732 39.7363 201.996 39.7448C202.817 39.7713 203.674 39.8039 204.546 39.842C205.385 39.8785 206.238 39.875 207.084 39.8324Z" fill="#AA3F6B"/>
<path d="M221.08 21.9307H216.83V25.2253C216.83 26.212 217.081 26.9202 217.575 27.3294C218.029 27.706 218.696 27.9089 219.558 27.9329V28.1668H214.491V31.6382H216.83V42.3355C216.83 43.3397 216.964 44.2127 217.23 44.9299C217.501 45.6632 217.976 46.2682 218.64 46.7285C219.293 47.1828 220.195 47.5138 221.321 47.7122C222.43 47.908 223.863 48.0072 225.58 48.0072H225.757V44.5357H225.58C224.658 44.5357 223.894 44.4842 223.311 44.3825C222.737 44.2833 222.279 44.1336 221.948 43.9367C221.629 43.7479 221.404 43.5175 221.277 43.2526C221.146 42.9801 221.08 42.6711 221.08 42.335V31.6377H225.757V28.1663H221.08V21.9307H221.08Z" fill="#AA3F6B"/>
<path d="M243.955 38.2813C243.955 39.4763 243.815 40.486 243.537 41.2824C243.261 42.0722 242.874 42.7188 242.39 43.2037C241.905 43.6885 241.339 44.0341 240.708 44.2319C240.067 44.4333 239.357 44.5354 238.598 44.5354C237.838 44.5354 237.122 44.4333 236.467 44.2314C235.823 44.0336 235.251 43.688 234.767 43.2037C234.28 42.7168 233.888 42.0697 233.6 41.2804C233.309 40.4855 233.162 39.4768 233.162 38.2818V28.1665H228.911V40.8146C228.911 41.7397 229.058 42.6627 229.348 43.5583C229.64 44.4603 230.104 45.2807 230.728 45.9974C231.352 46.7152 232.166 47.3007 233.147 47.7384C234.127 48.1752 235.305 48.397 236.649 48.397C237.834 48.397 238.86 48.2287 239.696 47.8972C240.53 47.5661 241.231 47.1414 241.777 46.635C242.321 46.1312 242.752 45.5917 243.059 45.0313C243.333 44.5309 243.54 44.0777 243.675 43.681H243.955V48.0069H248.206V28.1665H243.955V38.2813Z" fill="#AA3F6B"/>
<path d="M267.842 30.3327C267.374 29.597 266.703 28.9804 265.851 28.5006C264.996 28.0203 263.878 27.7764 262.529 27.7764C261.341 27.7764 260.354 27.9452 259.593 28.2787C258.832 28.6128 258.221 29.0415 257.777 29.5524C257.338 30.0588 257 30.5932 256.773 31.1401C256.572 31.6249 256.406 32.0792 256.279 32.4929H256.002V28.167H251.751V48.0074H256.002V37.8926C256.002 36.6936 256.117 35.6804 256.346 34.8815C256.572 34.0911 256.894 33.4445 257.304 32.9592C257.71 32.4799 258.196 32.1368 258.749 31.94C259.312 31.7396 259.928 31.6385 260.58 31.6385C261.899 31.6385 262.97 32.0717 263.763 32.9267C264.559 33.7851 264.963 35.0888 264.963 36.8013V37.0597L269.019 35.48V35.3593C269.019 34.5219 268.939 33.6524 268.782 32.7754C268.623 31.8879 268.307 31.0665 267.841 30.3342L267.842 30.3327Z" fill="#AA3F6B"/>
<path d="M290.863 44.536C290.165 44.536 289.691 44.4048 289.454 44.1453C289.213 43.8819 289.091 43.3384 289.091 42.5301V35.3588C289.091 34.0471 288.931 32.9006 288.614 31.951C288.294 30.9909 287.779 30.1915 287.083 29.5749C286.389 28.9619 285.473 28.5031 284.36 28.2111C283.259 27.9226 281.906 27.7764 280.34 27.7764C278.035 27.7764 276.085 28.2101 274.545 29.0651C272.989 29.929 271.893 31.4136 271.285 33.4761L271.233 33.6484L275.384 34.7918L275.439 34.6386C275.643 34.0801 275.867 33.5988 276.106 33.2091C276.337 32.8325 276.639 32.5235 277.005 32.2916C277.374 32.0582 277.825 31.8894 278.346 31.7897C278.881 31.6885 279.538 31.637 280.301 31.637C281.064 31.637 281.735 31.7136 282.301 31.8648C282.853 32.0116 283.318 32.272 283.684 32.6377C284.05 33.0043 284.331 33.5041 284.516 34.1222C284.694 34.7157 284.79 35.468 284.8 36.3595C283.954 36.4021 283.08 36.3991 282.201 36.3505C281.249 36.2984 280.295 36.2724 279.365 36.2724C278.431 36.2724 277.493 36.3255 276.578 36.4296C275.656 36.5353 274.76 36.7757 273.916 37.1449C273.06 37.5195 272.361 38.0629 271.839 38.7596C271.319 39.4533 270.961 40.2231 270.775 41.048C270.588 41.8729 270.575 42.7359 270.734 43.6129C270.894 44.4934 271.232 45.2978 271.738 46.003C272.246 46.7112 272.935 47.2932 273.789 47.7329C274.641 48.1727 275.678 48.3956 276.871 48.3956C278.055 48.3956 279.112 48.2213 280.012 47.8772C280.908 47.5351 281.684 47.1134 282.318 46.6245C282.952 46.1352 283.464 45.6033 283.838 45.0433C284.174 44.539 284.416 44.0812 284.559 43.68H284.843C284.885 44.9226 285.376 45.9564 286.304 46.7553C287.268 47.5852 288.801 48.0064 290.863 48.0064H291.039V44.535H290.863L290.863 44.536ZM284.838 39.8324C284.812 40.7455 284.594 41.5003 284.19 42.0778C283.753 42.7023 283.19 43.2017 282.517 43.5628C281.835 43.9294 281.085 44.1854 280.29 44.3241C279.487 44.4644 278.716 44.536 278.002 44.536C277.031 44.536 276.28 44.3441 275.768 43.9665C275.257 43.5894 274.925 43.1486 274.781 42.6563C274.636 42.1644 274.655 41.6776 274.834 41.2103C275.014 40.743 275.322 40.4109 275.775 40.1971C276.272 39.9732 276.862 39.834 277.528 39.7834C277.98 39.7493 278.464 39.7323 278.974 39.7323C279.227 39.7323 279.486 39.7363 279.75 39.7448C280.57 39.7713 281.428 39.8039 282.3 39.842C283.139 39.8785 283.992 39.875 284.838 39.8324Z" fill="#AA3F6B"/>
<path d="M105.742 54.9622C104.419 54.0051 102.643 53.5198 100.463 53.5198C97.7807 53.5198 95.7172 54.2676 94.3313 55.7426C92.9439 57.2196 92.2402 59.4294 92.2402 62.3113C92.2402 65.2263 92.9439 67.4531 94.3313 68.9296C95.7172 70.4046 97.7802 71.1529 100.463 71.1529C102.693 71.1529 104.497 70.643 105.827 69.6373C107.136 68.6471 108.018 67.1621 108.447 65.2218L105.974 64.6207C105.684 66.0742 105.085 67.1921 104.194 67.9449C103.283 68.7137 102.027 69.1034 100.464 69.1034C98.5811 69.1034 97.1476 68.5224 96.203 67.3769C95.2624 66.237 94.7851 64.5326 94.7851 62.3118C94.7851 60.1075 95.2624 58.4161 96.203 57.2832C97.1476 56.1458 98.5811 55.5693 100.464 55.5693C103.449 55.5693 105.294 56.9937 105.947 59.8035L108.396 59.1564C107.936 57.3148 107.043 55.9043 105.743 54.9622H105.742Z" fill="#AA3F6B"/>
<path d="M122.463 64.8094C122.463 62.7153 121.959 61.1171 120.966 60.0588C119.974 59.0025 118.477 58.4666 116.516 58.4666C114.588 58.4666 113.107 59.0025 112.115 60.0588C111.122 61.1171 110.618 62.7158 110.618 64.8094C110.618 66.9029 111.122 68.5022 112.115 69.56C113.107 70.6168 114.588 71.1522 116.516 71.1522C118.477 71.1522 119.974 70.6163 120.966 69.56C121.96 68.5017 122.463 66.9035 122.463 64.8094ZM119.256 68.1912C118.648 68.9605 117.726 69.3501 116.516 69.3501C115.321 69.3501 114.412 68.96 113.812 68.1906C113.217 67.4283 112.915 66.2909 112.915 64.8094C112.915 63.3278 113.216 62.1909 113.812 61.4281C114.412 60.6588 115.321 60.2686 116.516 60.2686C117.726 60.2686 118.648 60.6588 119.256 61.4276C119.86 62.1909 120.166 63.3288 120.166 64.8094C120.166 66.2899 119.86 67.4283 119.256 68.1912Z" fill="#AA3F6B"/>
<path d="M135.77 67.5308C135.77 66.6994 135.561 66.0408 135.149 65.573C134.73 65.0987 134.204 64.7235 133.585 64.4581C132.959 64.1901 132.27 63.9838 131.538 63.845C130.802 63.7063 130.105 63.56 129.469 63.4113C128.829 63.2615 128.284 63.0677 127.852 62.8343C127.394 62.5884 127.162 62.2042 127.162 61.6928C127.162 61.5331 127.202 61.3628 127.281 61.1865C127.363 61.0047 127.521 60.8459 127.751 60.7132C127.971 60.586 128.279 60.4788 128.667 60.3941C129.05 60.3105 129.556 60.2684 130.17 60.2684C130.75 60.2684 131.247 60.315 131.649 60.4066C132.054 60.4998 132.385 60.6375 132.633 60.8168C132.883 60.9987 133.068 61.2185 133.181 61.4705C133.28 61.6913 133.336 61.9383 133.348 62.2052L135.522 61.8161C135.509 61.4745 135.409 61.1134 135.223 60.7417C135.023 60.3425 134.707 59.9699 134.283 59.6333C133.856 59.2952 133.299 59.0133 132.628 58.7949C131.956 58.576 131.137 58.4653 130.194 58.4653C129.233 58.4653 128.404 58.5475 127.729 58.7103C127.058 58.872 126.502 59.1044 126.077 59.4019C125.655 59.6964 125.344 60.055 125.154 60.4672C124.962 60.8825 124.865 61.3447 124.865 61.8401C124.865 62.656 125.074 63.3151 125.487 63.7984C125.905 64.2893 126.432 64.6809 127.052 64.9629C127.676 65.2469 128.365 65.4658 129.098 65.612C129.836 65.7593 130.531 65.9095 131.166 66.0578C131.805 66.207 132.349 66.3969 132.782 66.6218C133.24 66.8602 133.473 67.2153 133.473 67.6776C133.473 67.9054 133.42 68.1233 133.314 68.3247C133.208 68.528 133.022 68.7103 132.762 68.8666C132.507 69.0198 132.169 69.14 131.757 69.2237C131.35 69.3068 130.832 69.3489 130.218 69.3489C129.031 69.3489 128.155 69.117 127.613 68.6602C127.099 68.2265 126.823 67.7236 126.792 67.1642L124.617 67.5533C124.629 67.959 124.742 68.3692 124.952 68.7744C125.176 69.2067 125.522 69.6043 125.979 69.9574C126.438 70.3121 127.024 70.6025 127.72 70.8214C128.418 71.0403 129.249 71.1515 130.192 71.1515C132.11 71.1515 133.537 70.8244 134.432 70.1788C135.319 69.5402 135.768 68.6487 135.768 67.5298L135.77 67.5308Z" fill="#AA3F6B"/>
<path d="M149.422 61.4261C149.693 61.095 150.005 60.8571 150.348 60.7199C151.026 60.4489 151.759 60.4489 152.454 60.7199C152.805 60.8571 153.121 61.095 153.393 61.4266C153.663 61.7562 153.884 62.1904 154.052 62.7173C154.219 63.2442 154.303 63.9063 154.303 64.6857V70.9048H156.6V63.0779C156.6 62.4303 156.522 61.8138 156.368 61.2458C156.215 60.6823 155.979 60.189 155.666 59.7798C155.355 59.3731 154.945 59.049 154.45 58.8166C153.952 58.5843 153.341 58.4666 152.632 58.4666C152.038 58.4666 151.518 58.5677 151.086 58.7676C150.652 58.9689 150.277 59.2248 149.973 59.5289C149.667 59.8354 149.418 60.1574 149.234 60.487C149.048 60.8176 148.914 61.1236 148.833 61.3961L148.814 61.4597H148.309L148.292 61.3935C148.067 60.5241 147.655 59.8103 147.069 59.2719C146.486 58.7375 145.645 58.4666 144.568 58.4666C143.975 58.4666 143.468 58.5677 143.061 58.7666C142.653 58.9669 142.308 59.2223 142.037 59.5254C141.763 59.8314 141.543 60.1534 141.382 60.4825C141.22 60.8151 141.097 61.1221 141.017 61.3966L140.998 61.4602H140.473V58.7145H138.176V70.9058H140.473V64.6867C140.473 63.9058 140.553 63.2442 140.712 62.7193C140.871 62.1909 141.089 61.7562 141.359 61.4271C141.63 61.096 141.942 60.8586 142.285 60.7209C142.962 60.4504 143.695 60.4499 144.39 60.7209C144.742 60.8586 145.058 61.096 145.33 61.4276C145.599 61.7572 145.821 62.1914 145.988 62.7183C146.155 63.2447 146.24 63.9073 146.24 64.6867V70.9058H148.537V64.6867C148.537 63.9058 148.618 63.2442 148.776 62.7193C148.935 62.1909 149.153 61.7562 149.423 61.4271L149.422 61.4261Z" fill="#AA3F6B"/>
<path d="M170.651 62.7263C170.457 61.8694 170.109 61.1156 169.617 60.4855C169.125 59.8569 168.474 59.3581 167.683 59.003C166.89 58.6469 165.945 58.4666 164.875 58.4666C162.947 58.4666 161.467 59.0025 160.475 60.0588C159.481 61.1171 158.978 62.7153 158.978 64.8094C158.978 66.9035 159.481 68.5022 160.475 69.56C161.467 70.6168 162.947 71.1522 164.875 71.1522C167.898 71.1522 169.792 69.8635 170.505 67.3217L168.302 66.7712C167.833 68.4826 166.68 69.3501 164.875 69.3501C163.782 69.3501 162.928 69.0246 162.336 68.3815C161.748 67.7434 161.399 66.7938 161.299 65.5582L161.291 65.4625H170.805C170.892 64.4843 170.841 63.5643 170.651 62.7258L170.651 62.7263ZM161.334 63.6609L161.349 63.5592C161.685 61.376 162.871 60.2686 164.875 60.2686C166.911 60.2686 168.113 61.376 168.45 63.5592L168.465 63.6609H161.333H161.334Z" fill="#AA3F6B"/>
<path d="M164.277 52.5791L163.306 56.5584H164.866L166.548 52.5791H164.277Z" fill="#AA3F6B"/>
<path d="M174.53 69.0826C174.688 69.5088 174.964 69.8609 175.351 70.1289C175.742 70.4008 176.288 70.5997 176.973 70.7204C177.647 70.8391 178.515 70.9012 179.554 70.9042V69.1021C178.996 69.0991 178.53 69.065 178.167 69.0019C177.78 68.9348 177.466 68.8311 177.235 68.6939C176.997 68.5532 176.828 68.3784 176.73 68.1735C176.634 67.9737 176.585 67.7483 176.585 67.5049V60.5154H179.554V58.7134H176.585V54.7556H174.288V56.6463C174.288 57.2098 174.423 57.6075 174.689 57.8274C174.96 58.0517 175.378 58.1654 175.931 58.1654H176.019V58.7134H172.804V60.5154H174.288V67.5049C174.288 68.1184 174.369 68.6493 174.53 69.0821L174.53 69.0826Z" fill="#AA3F6B"/>
<path d="M184.253 58.7131H181.956V70.9044H184.253V58.7131Z" fill="#AA3F6B"/>
<path d="M184.378 54.5579H181.834V56.5578H184.378V54.5579Z" fill="#AA3F6B"/>
<path d="M192.553 58.4666C190.625 58.4666 189.145 59.0025 188.152 60.0588C187.159 61.1171 186.655 62.7158 186.655 64.8094C186.655 66.9029 187.159 68.5022 188.152 69.56C189.145 70.6168 190.625 71.1522 192.553 71.1522C195.756 71.1522 197.685 69.7308 198.287 66.9275L196.061 66.3771C195.688 68.3499 194.509 69.3501 192.553 69.3501C191.358 69.3501 190.448 68.96 189.849 68.1906C189.254 67.4283 188.952 66.2904 188.952 64.8094C188.952 63.3283 189.254 62.1909 189.849 61.4281C190.449 60.6588 191.358 60.2686 192.553 60.2686C194.442 60.2686 195.612 61.2188 196.033 63.0935L198.26 62.5195C197.61 59.8299 195.691 58.4666 192.553 58.4666Z" fill="#AA3F6B"/>
<path d="M210.347 70.16C210.908 70.6428 211.807 70.8933 213.021 70.9048V69.1022C212.561 69.0907 212.248 68.9885 212.067 68.7902C211.877 68.5818 211.784 68.2027 211.784 67.6297V63.0784C211.784 62.267 211.686 61.5608 211.492 60.9788C211.3 60.4034 210.992 59.925 210.577 59.5574C210.16 59.1893 209.606 58.9128 208.931 58.7355C208.249 58.5567 207.408 58.4666 206.43 58.4666C205.001 58.4666 203.797 58.7335 202.85 59.2594C201.932 59.7693 201.277 60.6423 200.901 61.8543L203.16 62.4764C203.287 62.1413 203.425 61.8498 203.573 61.6094C203.736 61.344 203.949 61.1261 204.207 60.9623C204.463 60.8005 204.773 60.6838 205.128 60.6162C205.479 60.5496 205.909 60.5156 206.406 60.5156C206.906 60.5156 207.35 60.5666 207.727 60.6668C208.111 60.769 208.437 60.9518 208.695 61.2092C208.951 61.4657 209.146 61.8113 209.273 62.236C209.399 62.6552 209.463 63.1876 209.463 63.8197V63.9033L209.379 63.9078C208.801 63.9409 208.203 63.9414 207.601 63.9078C207 63.8753 206.398 63.8588 205.812 63.8588C205.227 63.8588 204.639 63.8918 204.066 63.9569C203.5 64.0215 202.951 64.1693 202.434 64.3952C201.923 64.6191 201.506 64.9421 201.195 65.3568C200.883 65.774 200.667 66.2368 200.555 66.7332C200.443 67.23 200.435 67.7504 200.532 68.2813C200.628 68.8102 200.831 69.2935 201.135 69.7173C201.438 70.1405 201.852 70.4896 202.365 70.754C202.877 71.0185 203.504 71.1522 204.229 71.1522C204.954 71.1522 205.603 71.046 206.151 70.8367C206.701 70.6263 207.177 70.3684 207.564 70.0699C207.949 69.7729 208.259 69.4513 208.484 69.1137C208.71 68.7757 208.864 68.4751 208.944 68.2212L208.963 68.1591H209.488V68.2472C209.488 69.0251 209.777 69.6682 210.348 70.159L210.347 70.16ZM209.038 67.4579C208.743 67.8801 208.362 68.2177 207.907 68.4621C207.455 68.705 206.959 68.8743 206.433 68.966C205.912 69.0571 205.412 69.1032 204.946 69.1032C204.286 69.1032 203.769 68.9685 203.41 68.7025C203.049 68.4366 202.814 68.1215 202.71 67.7659C202.605 67.4103 202.619 67.0582 202.749 66.7196C202.881 66.3776 203.116 66.1241 203.449 65.9669C203.787 65.8146 204.184 65.7204 204.63 65.6864C205.067 65.6533 205.548 65.6448 206.062 65.6613C206.574 65.6779 207.114 65.6984 207.684 65.7229C208.249 65.7475 208.824 65.7435 209.394 65.7109L209.487 65.7054V65.7991C209.487 66.4737 209.336 67.0317 209.038 67.4574V67.4579Z" fill="#AA3F6B"/>
<path d="M53.2337 24.8011C52.9818 28.2384 47.9362 30.7998 42.6006 33.1693C42.3401 33.285 42.0416 33.285 41.7812 33.1693C36.3083 30.7377 31.1981 28.1042 31.1981 24.5291V14.8165C31.1981 14.2611 30.7479 13.8108 30.1924 13.8108H24.8758C24.3204 13.8108 23.8701 14.2611 23.8701 14.8165V24.5291C23.8701 30.6941 28.2581 34.459 33.5987 37.354C33.5942 37.3565 33.5897 37.359 33.5852 37.3615H33.4945C28.2015 39.9424 23.8701 43.2996 23.8701 48.775V61.3349C23.8701 70.3804 32.0726 77.7134 42.1909 77.7134C52.3092 77.7134 60.5117 70.3804 60.5117 61.3349V48.775C60.5117 43.2996 56.1803 39.9424 50.8872 37.3615H50.7966C50.7921 37.359 50.7876 37.3565 50.7831 37.354C56.1237 34.459 60.5117 30.6941 60.5117 24.5291V14.8165C60.5117 14.2611 60.0614 13.8108 59.5059 13.8108H54.2675C53.7121 13.8108 53.2618 14.2611 53.2618 14.8165V24.1309M52.9788 59.046C52.9788 64.1142 48.1491 68.2227 42.1909 68.2227C36.2327 68.2227 31.403 64.1142 31.403 59.046C31.403 53.0989 38.0483 47.3886 41.5273 44.8017C41.9084 44.5182 42.4744 44.5177 42.856 44.8007C46.3395 47.3816 52.9788 53.0798 52.9788 59.046Z" fill="#AA3F6B"/>
<path d="M307.087 90H6V3H307.087V90ZM6.88351 89.117H306.204V3.88351H6.88351V89.117Z" fill="#AA3F6B"/>
<path d="M78.386 90H6V3H78.386V90ZM6.88351 89.117H77.5025V3.88351H6.88351V89.117Z" fill="#AA3F6B"/>
</g>
<defs>
<filter id="filter0_d_458_996" x="0.292252" y="0.146126" width="312.502" height="98.4155" filterUnits="userSpaceOnUse" color-interpolation-filters="sRGB">
<feFlood flood-opacity="0" result="BackgroundImageFix"/>
<feColorMatrix in="SourceAlpha" type="matrix" values="0 0 0 0 0 0 0 0 0 0 0 0 0 0 0 0 0 0 127 0" result="hardAlpha"/>
<feOffset dy="2.85387"/>
<feGaussianBlur stdDeviation="2.85387"/>
<feComposite in2="hardAlpha" operator="out"/>
<feColorMatrix type="matrix" values="0 0 0 0 0 0 0 0 0 0 0 0 0 0 0 0 0 0 0.25 0"/>
<feBlend mode="normal" in2="BackgroundImageFix" result="effect1_dropShadow_458_996"/>
<feBlend mode="normal" in="SourceGraphic" in2="effect1_dropShadow_458_996" result="shape"/>
</filter>
</defs>
</svg>
