<svg width="74" height="74" viewBox="0 0 74 74" fill="none" xmlns="http://www.w3.org/2000/svg">
<g id="Group">
<path id="Vector" d="M36.5953 0C26.6566 0 25.4103 0.0421631 21.507 0.220185C17.6119 0.397881 14.9517 1.0166 12.6239 1.92109C10.2174 2.85631 8.1766 4.10769 6.1422 6.14209C4.10769 8.17649 2.85631 10.2175 1.9212 12.624C1.01649 14.9517 0.39799 17.6119 0.220076 21.507C0.0420542 25.4103 0 26.6566 0 36.5953C0 46.5338 0.0420542 47.7801 0.220076 51.6834C0.39799 55.5785 1.01649 58.2388 1.9212 60.5664C2.85642 62.9729 4.1078 65.0137 6.1422 67.0483C8.17671 69.0827 10.2174 70.3341 12.6239 71.2693C14.9517 72.1738 17.6119 72.7924 21.507 72.9703C25.4103 73.1483 26.6566 73.1904 36.5953 73.1904C46.5338 73.1904 47.7801 73.1483 51.6834 72.9703C55.5785 72.7926 58.2388 72.1738 60.5664 71.2693C62.9729 70.3341 65.0137 69.0827 67.0483 67.0483C69.0827 65.0137 70.3341 62.9729 71.2693 60.5664C72.1738 58.2388 72.7926 55.5785 72.9703 51.6834C73.1483 47.7801 73.1904 46.5338 73.1904 36.5953C73.1904 26.6566 73.1483 25.4103 72.9703 21.507C72.7926 17.6119 72.1738 14.9517 71.2693 12.624C70.3341 10.2175 69.0827 8.17649 67.0483 6.14209C65.0137 4.10769 62.9729 2.85631 60.5664 1.92109C58.2388 1.0166 55.5785 0.397881 51.6834 0.220185C47.7801 0.0421631 46.5338 0 36.5953 0ZM36.5953 6.59369C46.3665 6.59369 47.524 6.63105 51.3828 6.80712C54.9509 6.96978 56.8886 7.56594 58.178 8.06711C59.8863 8.73104 61.1053 9.52397 62.3858 10.8046C63.6665 12.0851 64.4594 13.3043 65.1233 15.0124C65.6245 16.3019 66.2207 18.2396 66.3833 21.8076C66.5594 25.6665 66.5968 26.8239 66.5968 36.5952C66.5968 46.3665 66.5594 47.524 66.3833 51.3828C66.2207 54.9509 65.6245 56.8886 65.1233 58.178C64.4594 59.8863 63.6665 61.1053 62.3858 62.3858C61.1053 63.6665 59.8862 64.4594 58.1781 65.1233C56.8885 65.6245 54.9508 66.2207 51.3828 66.3833C47.5246 66.5594 46.3673 66.5968 36.5952 66.5968C26.8232 66.5968 25.666 66.5594 21.8076 66.3832C18.2395 66.2207 16.3019 65.6245 15.0125 65.1233C13.3042 64.4594 12.0851 63.6665 10.8047 62.3858C9.52408 61.1053 8.73104 59.8862 8.06711 58.1781C7.56594 56.8885 6.96988 54.9508 6.80712 51.3828C6.63105 47.524 6.59369 46.3665 6.59369 36.5952C6.59369 26.8239 6.63105 25.6665 6.80712 21.8076C6.96988 18.2395 7.56594 16.3019 8.06711 15.0125C8.73104 13.3042 9.52408 12.0851 10.8046 10.8047C12.0851 9.52397 13.3043 8.73104 15.0124 8.06711C16.3019 7.56594 18.2396 6.96978 21.8076 6.80712C25.6665 6.63105 26.8239 6.59369 36.5952 6.59369" fill="#BB2D7A"/>
<path id="Vector_2" d="M36.595 48.794C29.8578 48.794 24.3964 43.3326 24.3964 36.5957C24.3964 29.8585 29.8578 24.3971 36.595 24.3971C43.3319 24.3971 48.7933 29.8585 48.7933 36.5957C48.7933 43.3326 43.3319 48.794 36.595 48.794ZM36.595 17.8034C26.2162 17.8034 17.8027 26.2169 17.8027 36.5957C17.8027 46.9742 26.2162 55.3877 36.595 55.3877C46.9735 55.3877 55.387 46.9742 55.387 36.5957C55.387 26.2169 46.9735 17.8034 36.595 17.8034ZM60.521 17.0609C60.521 19.4864 58.5548 21.4523 56.1295 21.4523C53.7043 21.4523 51.7381 19.4864 51.7381 17.0609C51.7381 14.6356 53.7043 12.6694 56.1295 12.6694C58.5548 12.6694 60.521 14.6356 60.521 17.0609Z" fill="#BB2D7A"/>
</g>
</svg>
